<svg width="639" height="147" viewBox="0 0 639 147" fill="none" xmlns="http://www.w3.org/2000/svg"><rect x="217" width="415" height="147" rx="6" fill="#fff"/><path d="M163.664 66.61 129.186 6.89A13.797 13.797 0 0 0 117.234 0H48.278a13.799 13.799 0 0 0-11.93 6.89l-34.5 59.72a13.774 13.774 0 0 0 0 13.78l34.478 59.719A13.785 13.785 0 0 0 48.278 147h68.956a13.785 13.785 0 0 0 11.929-6.891l34.478-59.718a13.772 13.772 0 0 0 .023-13.782Z" fill="url(#a)"/><path d="M286.176 12.632h14.94v87.281h-11.492l-47.12-60.867v60.867h-14.941v-87.28h11.493l47.12 60.867V12.631ZM330.997 99.913v-87.28h16.09v87.28h-16.09ZM449.371 12.632h12.642v87.281h-13.791V45.938l-23.56 53.977h-10.343l-23.56-53.977v53.977h-13.791V12.632h12.642l29.88 68.332 29.881-68.332ZM491.894 99.913v-87.28h16.09v87.28h-16.09ZM615.463 80.023a36.441 36.441 0 0 1-18.388 17.433 48.432 48.432 0 0 0 7.01 9.417 87.327 87.327 0 0 0 9.195 8.544l-11.056 8.614a66.581 66.581 0 0 1-11.079-10.061 73.058 73.058 0 0 1-9.355-13.023h-3.701a45.237 45.237 0 0 1-22.732-5.42 36.092 36.092 0 0 1-14.711-15.62 53.963 53.963 0 0 1-5.08-23.634 51.293 51.293 0 0 1 5.149-23.75 36.457 36.457 0 0 1 14.757-15.619 50.135 50.135 0 0 1 45.35 0 36.096 36.096 0 0 1 14.71 15.62 51.873 51.873 0 0 1 5.08 23.749 53.554 53.554 0 0 1-5.149 23.75Zm-56.842 0a26.89 26.89 0 0 0 19.468 8.334 26.91 26.91 0 0 0 19.469-8.334c4.597-5.582 6.895-13.437 6.895-23.819s-2.298-18.375-6.895-23.864a27.075 27.075 0 0 0-19.469-8.253 27.096 27.096 0 0 0-19.468 8.253c-4.598 5.489-6.896 13.551-6.896 23.933s2.23 18.237 6.827 23.818l.069-.068ZM228.451 126.21v-4.968h5.064v4.968h-5.064Zm23.163.288c-1.888 0-3.528-.36-4.92-1.08-1.376-.736-2.448-1.76-3.216-3.072-.752-1.312-1.128-2.848-1.128-4.608 0-1.76.376-3.288 1.128-4.584.768-1.312 1.84-2.328 3.216-3.048 1.392-.736 3.032-1.104 4.92-1.104 1.152 0 2.208.152 3.168.456.976.288 1.784.704 2.424 1.248l-1.512 4.056c-.72-.48-1.368-.808-1.944-.984-.576-.192-1.224-.288-1.944-.288-1.296 0-2.296.368-3 1.104-.688.72-1.032 1.768-1.032 3.144 0 1.392.344 2.456 1.032 3.192.704.72 1.704 1.08 3 1.08.72 0 1.368-.088 1.944-.264.576-.192 1.224-.528 1.944-1.008l1.512 4.056c-.64.544-1.448.968-2.424 1.272-.96.288-2.016.432-3.168.432Zm14.5-8.76c0-1.744.352-3.272 1.056-4.584a7.555 7.555 0 0 1 3.048-3.048c1.312-.736 2.864-1.104 4.656-1.104 1.808 0 3.368.368 4.68 1.104a7.555 7.555 0 0 1 3.048 3.048c.72 1.312 1.08 2.84 1.08 4.584 0 1.744-.36 3.272-1.08 4.584a7.713 7.713 0 0 1-3.048 3.072c-1.312.736-2.872 1.104-4.68 1.104-1.792 0-3.344-.368-4.656-1.104a7.713 7.713 0 0 1-3.048-3.072c-.704-1.328-1.056-2.856-1.056-4.584Zm5.424 0c0 1.408.264 2.504.792 3.288.544.784 1.392 1.176 2.544 1.176 1.152 0 2-.392 2.544-1.176.56-.8.84-1.896.84-3.288s-.28-2.48-.84-3.264c-.544-.784-1.392-1.176-2.544-1.176-1.152 0-2 .392-2.544 1.176-.528.768-.792 1.856-.792 3.264Zm22.523 8.472v-16.92h4.512l5.136 11.496h-.816l5.136-11.496h4.512v16.92h-4.68v-9.144h1.152l-4.32 9.144h-2.856l-4.32-9.144h1.224v9.144h-4.68Zm44.315-4.728v-3.84h8.16v3.84h-8.16Zm38.565 5.016c-1.184 0-2.256-.112-3.216-.336-.944-.224-1.752-.528-2.424-.912l1.152-3.216c.624.32 1.336.592 2.136.816a8.96 8.96 0 0 0 2.376.336c.512 0 .872-.064 1.08-.192.208-.144.312-.32.312-.528a.462.462 0 0 0-.216-.408c-.128-.096-.312-.16-.552-.192l-2.688-.456c-1.04-.176-1.848-.552-2.424-1.128-.576-.592-.864-1.36-.864-2.304 0-.864.232-1.616.696-2.256.48-.64 1.152-1.136 2.016-1.488.88-.368 1.912-.552 3.096-.552.944 0 1.848.104 2.712.312.88.192 1.648.504 2.304.936l-1.224 3.12c-.496-.304-1.088-.552-1.776-.744-.672-.208-1.288-.312-1.848-.312-.592 0-1.008.072-1.248.216-.224.128-.336.296-.336.504 0 .144.056.272.168.384.128.096.32.168.576.216l2.688.432c1.056.16 1.872.528 2.448 1.104.576.56.864 1.328.864 2.304 0 .928-.248 1.712-.744 2.352-.48.64-1.16 1.136-2.04 1.488-.864.336-1.872.504-3.024.504Zm21.691 0c-1.408 0-2.632-.256-3.672-.768-1.04-.528-1.848-1.272-2.424-2.232-.56-.96-.84-2.096-.84-3.408 0-1.328.28-2.464.84-3.408.576-.96 1.384-1.696 2.424-2.208 1.04-.528 2.264-.792 3.672-.792 1.408 0 2.624.264 3.648.792 1.04.512 1.84 1.248 2.4 2.208.576.944.864 2.08.864 3.408 0 1.312-.288 2.448-.864 3.408-.56.96-1.36 1.704-2.4 2.232-1.024.512-2.24.768-3.648.768Zm0-3.672c.576 0 1.032-.208 1.368-.624.336-.416.504-1.12.504-2.112s-.168-1.696-.504-2.112c-.336-.416-.792-.624-1.368-.624-.592 0-1.056.208-1.392.624-.336.416-.504 1.12-.504 2.112s.168 1.696.504 2.112c.336.416.8.624 1.392.624Zm21.165 3.672c-1.584 0-2.752-.44-3.504-1.32-.736-.88-1.104-2.216-1.104-4.008v-7.2h4.992v7.248c0 .496.104.872.312 1.128.208.24.512.36.912.36.48 0 .88-.176 1.2-.528.32-.368.48-.848.48-1.44v-6.768h4.992v12.24h-4.872v-2.016h.384c-.4.736-.92 1.304-1.56 1.704-.624.4-1.368.6-2.232.6Zm18.501-.288v-8.76c0-.576-.016-1.152-.048-1.728a31.029 31.029 0 0 0-.144-1.752h4.8l.552 4.008h-.744c.16-.976.4-1.776.72-2.4.336-.64.768-1.112 1.296-1.416.528-.32 1.168-.48 1.92-.48.368 0 .632.016.792.048.176.032.36.088.552.168v4.368c-.432-.192-.776-.312-1.032-.36-.256-.064-.592-.096-1.008-.096-.656 0-1.176.104-1.56.312-.384.192-.656.52-.816.984-.16.464-.24 1.096-.24 1.896v5.208h-5.04Zm24.971.288c-1.392 0-2.616-.256-3.672-.768s-1.88-1.248-2.472-2.208c-.576-.96-.864-2.104-.864-3.432 0-1.344.288-2.488.864-3.432.592-.96 1.416-1.696 2.472-2.208 1.056-.512 2.28-.768 3.672-.768.848 0 1.68.112 2.496.336.832.208 1.496.504 1.992.888l-1.344 3.384a3.808 3.808 0 0 0-1.248-.624 4.115 4.115 0 0 0-1.344-.24c-.768 0-1.368.224-1.8.672-.416.448-.624 1.112-.624 1.992 0 .88.208 1.544.624 1.992.432.448 1.032.672 1.8.672.416 0 .864-.08 1.344-.24.48-.16.896-.368 1.248-.624l1.344 3.384c-.512.384-1.176.688-1.992.912-.816.208-1.648.312-2.496.312Zm20.394 0c-2.304 0-4.088-.576-5.352-1.728-1.264-1.152-1.896-2.72-1.896-4.704 0-1.232.256-2.328.768-3.288a5.757 5.757 0 0 1 2.208-2.256c.96-.56 2.08-.84 3.36-.84 1.28 0 2.344.28 3.192.84.848.56 1.48 1.328 1.896 2.304.416.96.624 2.064.624 3.312v.96h-7.824v-2.256h4.104l-.408.336c0-.784-.136-1.352-.408-1.704-.272-.368-.648-.552-1.128-.552-.56 0-.984.224-1.272.672-.272.432-.408 1.136-.408 2.112v.504c0 .928.224 1.6.672 2.016.464.4 1.144.6 2.04.6.608 0 1.184-.056 1.728-.168a6.17 6.17 0 0 0 1.56-.6l1.248 3.24c-.64.384-1.36.68-2.16.888a9.895 9.895 0 0 1-2.544.312Zm19.361 0c-1.184 0-2.256-.112-3.216-.336-.944-.224-1.752-.528-2.424-.912l1.152-3.216c.624.32 1.336.592 2.136.816a8.96 8.96 0 0 0 2.376.336c.512 0 .872-.064 1.08-.192.208-.144.312-.32.312-.528a.462.462 0 0 0-.216-.408c-.128-.096-.312-.16-.552-.192l-2.688-.456c-1.04-.176-1.848-.552-2.424-1.128-.576-.592-.864-1.36-.864-2.304 0-.864.232-1.616.696-2.256.48-.64 1.152-1.136 2.016-1.488.88-.368 1.912-.552 3.096-.552.944 0 1.848.104 2.712.312.88.192 1.648.504 2.304.936l-1.224 3.12c-.496-.304-1.088-.552-1.776-.744-.672-.208-1.288-.312-1.848-.312-.592 0-1.008.072-1.248.216-.224.128-.336.296-.336.504 0 .144.056.272.168.384.128.096.32.168.576.216l2.688.432c1.056.16 1.872.528 2.448 1.104.576.56.864 1.328.864 2.304 0 .928-.248 1.712-.744 2.352-.48.64-1.16 1.136-2.04 1.488-.864.336-1.872.504-3.024.504Z" fill="#1F2348"/><rect x="110.338" y="39.047" width="9.194" height="68.906" rx="1" fill="url(#b)"/><rect x="87.353" y="64.313" width="9.194" height="43.641" rx="1" fill="url(#c)"/><rect x="66.666" y="52.828" width="9.194" height="55.125" rx="1" fill="url(#d)"/><rect x="43.681" y="78.094" width="9.194" height="29.859" rx="1" fill="url(#e)"/><defs><radialGradient id="a" cx="0" cy="0" r="1" gradientUnits="userSpaceOnUse" gradientTransform="matrix(165.54 0 0 165.421 124.52 145.094)"><stop stop-color="#EC991C"/><stop offset="1" stop-color="#E9B213"/></radialGradient><radialGradient id="b" cx="0" cy="0" r="1" gradientUnits="userSpaceOnUse" gradientTransform="matrix(-6.38062 47.34327 -12.64636 -1.7044 118.394 49.753)"><stop offset=".188" stop-color="#fff"/><stop offset=".613" stop-color="#fff" stop-opacity=".857"/><stop offset="1" stop-color="#fff" stop-opacity=".6"/></radialGradient><radialGradient id="c" cx="0" cy="0" r="1" gradientUnits="userSpaceOnUse" gradientTransform="matrix(-6.38044 29.98416 -12.3183 -2.62126 95.408 71.093)"><stop offset=".188" stop-color="#fff"/><stop offset=".613" stop-color="#fff" stop-opacity=".857"/><stop offset="1" stop-color="#fff" stop-opacity=".6"/></radialGradient><radialGradient id="d" cx="0" cy="0" r="1" gradientUnits="userSpaceOnUse" gradientTransform="rotate(99.563 11.403 62.29) scale(38.4083 12.6972)"><stop offset=".188" stop-color="#fff"/><stop offset=".613" stop-color="#fff" stop-opacity=".857"/><stop offset="1" stop-color="#fff" stop-opacity=".6"/></radialGradient><radialGradient id="e" cx="0" cy="0" r="1" gradientUnits="userSpaceOnUse" gradientTransform="rotate(107.276 -4.587 60.412) scale(21.4848 12.2951)"><stop offset=".188" stop-color="#fff"/><stop offset=".613" stop-color="#fff" stop-opacity=".857"/><stop offset="1" stop-color="#fff" stop-opacity=".6"/></radialGradient></defs></svg>