<svg width="270" height="64" viewBox="0 0 270 64" fill="none" xmlns="http://www.w3.org/2000/svg">
<g clip-path="url(#clip0_4_498)">
<path d="M71.2 29L56.2 3C55.6731 2.08732 54.915 1.32953 54.0022 0.802886C53.0893 0.276243 52.0539 -0.000674451 51 1.23355e-06H21C19.9478 0.00108046 18.9144 0.27883 18.0035 0.805386C17.0925 1.33194 16.3361 2.08879 15.81 3L0.8 29C0.27339 29.9121 -0.00384758 30.9468 -0.00384758 32C-0.00384758 33.0532 0.27339 34.0879 0.8 35L15.8 61C16.3269 61.9127 17.085 62.6705 17.9978 63.1971C18.9107 63.7238 19.9461 64.0007 21 64H51C52.0522 63.9989 53.0856 63.7212 53.9965 63.1946C54.9075 62.6681 55.6639 61.9112 56.19 61L71.19 35C71.7181 34.0888 71.9971 33.0546 71.9988 32.0013C72.0006 30.9481 71.7251 29.913 71.2 29V29Z" fill="url(#paint0_radial_4_498)"/>
<path d="M124.5 13H131V51H126L105.5 24.5V51H99V13H104L124.5 39.5V13Z" fill="#1F2348"/>
<path d="M144 51V13H151V51H144Z" fill="#1F2348"/>
<path d="M195.5 13H201V51H195V27.5L184.75 51H180.25L170 27.5V51H164V13H169.5L182.5 42.75L195.5 13Z" fill="#1F2348"/>
<path d="M214 51V13H221V51H214Z" fill="#1F2348"/>
<path d="M267.76 42.34C266.087 45.7455 263.249 48.4384 259.76 49.93C260.607 51.4152 261.631 52.792 262.81 54.03C264.052 55.3644 265.389 56.6076 266.81 57.75L262 61.5C260.234 60.2256 258.617 58.7564 257.18 57.12C255.62 55.385 254.255 53.4835 253.11 51.45C252.83 51.45 252.01 51.45 251.5 51.45C248.053 51.5437 244.643 50.7298 241.61 49.09C238.837 47.5244 236.605 45.153 235.21 42.29C233.705 39.0711 232.95 35.5529 233 32C232.908 28.4237 233.676 24.8776 235.24 21.66C236.648 18.8 238.886 16.4304 241.66 14.86C244.717 13.3087 248.097 12.5002 251.525 12.5002C254.953 12.5002 258.333 13.3087 261.39 14.86C264.163 16.4256 266.395 18.797 267.79 21.66C269.334 24.8834 270.091 28.4271 270 32C270.055 35.5727 269.289 39.1104 267.76 42.34ZM243.03 42.34C244.123 43.4866 245.437 44.3995 246.893 45.0232C248.349 45.6469 249.916 45.9685 251.5 45.9685C253.084 45.9685 254.651 45.6469 256.107 45.0232C257.563 44.3995 258.877 43.4866 259.97 42.34C261.97 39.91 262.97 36.49 262.97 31.97C262.97 27.45 261.97 23.97 259.97 21.58C258.871 20.4435 257.555 19.5397 256.1 18.9224C254.645 18.3051 253.081 17.987 251.5 17.987C249.919 17.987 248.355 18.3051 246.9 18.9224C245.445 19.5397 244.129 20.4435 243.03 21.58C241.03 23.97 240.03 27.48 240.03 32C240.03 36.52 241 39.94 243 42.37L243.03 42.34Z" fill="#1F2348"/>
<path d="M103.008 63.144C102.32 63.144 101.656 63.064 101.016 62.904C100.384 62.744 99.86 62.528 99.444 62.256L100.152 60.264C100.408 60.416 100.696 60.552 101.016 60.672C101.336 60.784 101.668 60.876 102.012 60.948C102.356 61.012 102.696 61.044 103.032 61.044C103.504 61.044 103.82 60.996 103.98 60.9C104.14 60.796 104.22 60.672 104.22 60.528C104.22 60.392 104.168 60.284 104.064 60.204C103.968 60.124 103.764 60.052 103.452 59.988L101.928 59.676C101.152 59.516 100.568 59.232 100.176 58.824C99.792 58.416 99.6 57.888 99.6 57.24C99.6 56.664 99.756 56.164 100.068 55.74C100.38 55.316 100.82 54.988 101.388 54.756C101.956 54.516 102.62 54.396 103.38 54.396C103.98 54.396 104.548 54.476 105.084 54.636C105.62 54.796 106.056 55.012 106.392 55.284L105.684 57.156C105.38 56.948 105.028 56.788 104.628 56.676C104.236 56.556 103.8 56.496 103.32 56.496C102.92 56.496 102.62 56.544 102.42 56.64C102.228 56.736 102.132 56.876 102.132 57.06C102.132 57.172 102.188 57.276 102.3 57.372C102.412 57.468 102.628 57.548 102.948 57.612L104.448 57.912C105.208 58.064 105.78 58.344 106.164 58.752C106.556 59.16 106.752 59.684 106.752 60.324C106.752 60.892 106.596 61.388 106.284 61.812C105.972 62.236 105.536 62.564 104.976 62.796C104.416 63.028 103.76 63.144 103.008 63.144ZM113.171 63V56.628H110.723V54.54H118.211V56.628H115.763V63H113.171ZM120.531 63L124.551 54.54H126.651L130.695 63H128.103L127.095 60.708L128.067 61.428H123.159L124.119 60.708L123.111 63H120.531ZM125.595 57.18L124.359 60.144L123.999 59.472H127.227L126.903 60.144L125.655 57.18H125.595ZM135.462 63V56.628H133.014V54.54H140.502V56.628H138.054V63H135.462ZM147.953 63.144C147.265 63.144 146.601 63.064 145.961 62.904C145.329 62.744 144.805 62.528 144.389 62.256L145.097 60.264C145.353 60.416 145.641 60.552 145.961 60.672C146.281 60.784 146.613 60.876 146.957 60.948C147.301 61.012 147.641 61.044 147.977 61.044C148.449 61.044 148.765 60.996 148.925 60.9C149.085 60.796 149.165 60.672 149.165 60.528C149.165 60.392 149.113 60.284 149.009 60.204C148.913 60.124 148.709 60.052 148.397 59.988L146.873 59.676C146.097 59.516 145.513 59.232 145.121 58.824C144.737 58.416 144.545 57.888 144.545 57.24C144.545 56.664 144.701 56.164 145.013 55.74C145.325 55.316 145.765 54.988 146.333 54.756C146.901 54.516 147.565 54.396 148.325 54.396C148.925 54.396 149.493 54.476 150.029 54.636C150.565 54.796 151.001 55.012 151.337 55.284L150.629 57.156C150.325 56.948 149.973 56.788 149.573 56.676C149.181 56.556 148.745 56.496 148.265 56.496C147.865 56.496 147.565 56.544 147.365 56.64C147.173 56.736 147.077 56.876 147.077 57.06C147.077 57.172 147.133 57.276 147.245 57.372C147.357 57.468 147.573 57.548 147.893 57.612L149.393 57.912C150.153 58.064 150.725 58.344 151.109 58.752C151.501 59.16 151.697 59.684 151.697 60.324C151.697 60.892 151.541 61.388 151.229 61.812C150.917 62.236 150.481 62.564 149.921 62.796C149.361 63.028 148.705 63.144 147.953 63.144Z" fill="#1F2348"/>
<rect x="48" y="17" width="4" height="30" fill="url(#paint1_radial_4_498)"/>
<rect x="38" y="28" width="4" height="19" fill="url(#paint2_radial_4_498)"/>
<rect x="29" y="23" width="4" height="24" fill="url(#paint3_radial_4_498)"/>
<rect x="19" y="34" width="4" height="13" fill="url(#paint4_radial_4_498)"/>
</g>
<defs>
<radialGradient id="paint0_radial_4_498" cx="0" cy="0" r="1" gradientUnits="userSpaceOnUse" gradientTransform="translate(54.17 63.17) scale(72.02 72.02)">
<stop stop-color="#EC991C"/>
<stop offset="1" stop-color="#E9B213"/>
</radialGradient>
<radialGradient id="paint1_radial_4_498" cx="0" cy="0" r="1" gradientUnits="userSpaceOnUse" gradientTransform="translate(51.5046 21.661) rotate(97.6702) scale(20.7981 5.55175)">
<stop offset="0.187845" stop-color="white"/>
<stop offset="0.61326" stop-color="white" stop-opacity="0.8565"/>
<stop offset="1" stop-color="white" stop-opacity="0.6"/>
</radialGradient>
<radialGradient id="paint2_radial_4_498" cx="0" cy="0" r="1" gradientUnits="userSpaceOnUse" gradientTransform="translate(41.5046 30.952) rotate(102.005) scale(13.3462 5.47936)">
<stop offset="0.187845" stop-color="white"/>
<stop offset="0.61326" stop-color="white" stop-opacity="0.8565"/>
<stop offset="1" stop-color="white" stop-opacity="0.6"/>
</radialGradient>
<radialGradient id="paint3_radial_4_498" cx="0" cy="0" r="1" gradientUnits="userSpaceOnUse" gradientTransform="translate(32.5046 26.7288) rotate(99.5558) scale(16.7217 5.52414)">
<stop offset="0.187845" stop-color="white"/>
<stop offset="0.61326" stop-color="white" stop-opacity="0.8565"/>
<stop offset="1" stop-color="white" stop-opacity="0.6"/>
</radialGradient>
<radialGradient id="paint4_radial_4_498" cx="0" cy="0" r="1" gradientUnits="userSpaceOnUse" gradientTransform="translate(22.5046 36.0198) rotate(107.265) scale(9.35332 5.34947)">
<stop offset="0.187845" stop-color="white"/>
<stop offset="0.61326" stop-color="white" stop-opacity="0.8565"/>
<stop offset="1" stop-color="white" stop-opacity="0.6"/>
</radialGradient>
<clipPath id="clip0_4_498">
<rect width="270" height="64" fill="white"/>
</clipPath>
</defs>
</svg>
