<svg width="270" height="64" viewBox="0 0 270 64" fill="none" xmlns="http://www.w3.org/2000/svg">
<g clip-path="url(#clip0_4_498)">
<path d="M71.2 29L56.2 3C55.6731 2.08732 54.915 1.32953 54.0022 0.802886C53.0893 0.276243 52.0539 -0.000674451 51 1.23355e-06H21C19.9478 0.00108046 18.9144 0.27883 18.0035 0.805386C17.0925 1.33194 16.3361 2.08879 15.81 3L0.8 29C0.27339 29.9121 -0.00384758 30.9468 -0.00384758 32C-0.00384758 33.0532 0.27339 34.0879 0.8 35L15.8 61C16.3269 61.9127 17.085 62.6705 17.9978 63.1971C18.9107 63.7238 19.9461 64.0007 21 64H51C52.0522 63.9989 53.0856 63.7212 53.9965 63.1946C54.9075 62.6681 55.6639 61.9112 56.19 61L71.19 35C71.7181 34.0888 71.9971 33.0546 71.9988 32.0013C72.0006 30.9481 71.7251 29.913 71.2 29V29Z" fill="url(#paint0_radial_4_498)"/>
<path d="M124.5 13H131V51H126L105.5 24.5V51H99V13H104L124.5 39.5V13Z" fill="#1F2348"/>
<path d="M144 51V13H151V51H144Z" fill="#1F2348"/>
<path d="M195.5 13H201V51H195V27.5L184.75 51H180.25L170 27.5V51H164V13H169.5L182.5 42.75L195.5 13Z" fill="#1F2348"/>
<path d="M214 51V13H221V51H214Z" fill="#1F2348"/>
<path d="M267.76 42.34C266.087 45.7455 263.249 48.4384 259.76 49.93C260.607 51.4152 261.631 52.792 262.81 54.03C264.052 55.3644 265.389 56.6076 266.81 57.75L262 61.5C260.234 60.2256 258.617 58.7564 257.18 57.12C255.62 55.385 254.255 53.4835 253.11 51.45C252.83 51.45 252.01 51.45 251.5 51.45C248.053 51.5437 244.643 50.7298 241.61 49.09C238.837 47.5244 236.605 45.153 235.21 42.29C233.705 39.0711 232.95 35.5529 233 32C232.908 28.4237 233.676 24.8776 235.24 21.66C236.648 18.8 238.886 16.4304 241.66 14.86C244.717 13.3087 248.097 12.5002 251.525 12.5002C254.953 12.5002 258.333 13.3087 261.39 14.86C264.163 16.4256 266.395 18.797 267.79 21.66C269.334 24.8834 270.091 28.4271 270 32C270.055 35.5727 269.289 39.1104 267.76 42.34ZM243.03 42.34C244.123 43.4866 245.437 44.3995 246.893 45.0232C248.349 45.6469 249.916 45.9685 251.5 45.9685C253.084 45.9685 254.651 45.6469 256.107 45.0232C257.563 44.3995 258.877 43.4866 259.97 42.34C261.97 39.91 262.97 36.49 262.97 31.97C262.97 27.45 261.97 23.97 259.97 21.58C258.871 20.4435 257.555 19.5397 256.1 18.9224C254.645 18.3051 253.081 17.987 251.5 17.987C249.919 17.987 248.355 18.3051 246.9 18.9224C245.445 19.5397 244.129 20.4435 243.03 21.58C241.03 23.97 240.03 27.48 240.03 32C240.03 36.52 241 39.94 243 42.37L243.03 42.34Z" fill="#1F2348"/>
<path d="M103.008 64.144C102.32 64.144 101.656 64.064 101.016 63.904C100.384 63.744 99.86 63.528 99.444 63.256L100.152 61.264C100.408 61.416 100.696 61.552 101.016 61.672C101.336 61.784 101.668 61.876 102.012 61.948C102.356 62.012 102.696 62.044 103.032 62.044C103.504 62.044 103.82 61.996 103.98 61.9C104.14 61.796 104.22 61.672 104.22 61.528C104.22 61.392 104.168 61.284 104.064 61.204C103.968 61.124 103.764 61.052 103.452 60.988L101.928 60.676C101.152 60.516 100.568 60.232 100.176 59.824C99.792 59.416 99.6 58.888 99.6 58.24C99.6 57.664 99.756 57.164 100.068 56.74C100.38 56.316 100.82 55.988 101.388 55.756C101.956 55.516 102.62 55.396 103.38 55.396C103.98 55.396 104.548 55.476 105.084 55.636C105.62 55.796 106.056 56.012 106.392 56.284L105.684 58.156C105.38 57.948 105.028 57.788 104.628 57.676C104.236 57.556 103.8 57.496 103.32 57.496C102.92 57.496 102.62 57.544 102.42 57.64C102.228 57.736 102.132 57.876 102.132 58.06C102.132 58.172 102.188 58.276 102.3 58.372C102.412 58.468 102.628 58.548 102.948 58.612L104.448 58.912C105.208 59.064 105.78 59.344 106.164 59.752C106.556 60.16 106.752 60.684 106.752 61.324C106.752 61.892 106.596 62.388 106.284 62.812C105.972 63.236 105.536 63.564 104.976 63.796C104.416 64.028 103.76 64.144 103.008 64.144ZM113.171 64V57.628H110.723V55.54H118.211V57.628H115.763V64H113.171ZM120.531 64L124.551 55.54H126.651L130.695 64H128.103L127.095 61.708L128.067 62.428H123.159L124.119 61.708L123.111 64H120.531ZM125.595 58.18L124.359 61.144L123.999 60.472H127.227L126.903 61.144L125.655 58.18H125.595ZM135.462 64V57.628H133.014V55.54H140.502V57.628H138.054V64H135.462ZM147.953 64.144C147.265 64.144 146.601 64.064 145.961 63.904C145.329 63.744 144.805 63.528 144.389 63.256L145.097 61.264C145.353 61.416 145.641 61.552 145.961 61.672C146.281 61.784 146.613 61.876 146.957 61.948C147.301 62.012 147.641 62.044 147.977 62.044C148.449 62.044 148.765 61.996 148.925 61.9C149.085 61.796 149.165 61.672 149.165 61.528C149.165 61.392 149.113 61.284 149.009 61.204C148.913 61.124 148.709 61.052 148.397 60.988L146.873 60.676C146.097 60.516 145.513 60.232 145.121 59.824C144.737 59.416 144.545 58.888 144.545 58.24C144.545 57.664 144.701 57.164 145.013 56.74C145.325 56.316 145.765 55.988 146.333 55.756C146.901 55.516 147.565 55.396 148.325 55.396C148.925 55.396 149.493 55.476 150.029 55.636C150.565 55.796 151.001 56.012 151.337 56.284L150.629 58.156C150.325 57.948 149.973 57.788 149.573 57.676C149.181 57.556 148.745 57.496 148.265 57.496C147.865 57.496 147.565 57.544 147.365 57.64C147.173 57.736 147.077 57.876 147.077 58.06C147.077 58.172 147.133 58.276 147.245 58.372C147.357 58.468 147.573 58.548 147.893 58.612L149.393 58.912C150.153 59.064 150.725 59.344 151.109 59.752C151.501 60.16 151.697 60.684 151.697 61.324C151.697 61.892 151.541 62.388 151.229 62.812C150.917 63.236 150.481 63.564 149.921 63.796C149.361 64.028 148.705 64.144 147.953 64.144Z" fill="#1F2348"/>
<rect x="48" y="17" width="4" height="30" rx="1" fill="url(#paint1_radial_4_498)"/>
<rect x="38" y="28" width="4" height="19" rx="1" fill="url(#paint2_radial_4_498)"/>
<rect x="29" y="23" width="4" height="24" rx="1" fill="url(#paint3_radial_4_498)"/>
<rect x="19" y="34" width="4" height="13" rx="1" fill="url(#paint4_radial_4_498)"/>
</g>
<defs>
<radialGradient id="paint0_radial_4_498" cx="0" cy="0" r="1" gradientUnits="userSpaceOnUse" gradientTransform="translate(54.17 63.17) scale(72.02 72.02)">
<stop stop-color="#EC991C"/>
<stop offset="1" stop-color="#E9B213"/>
</radialGradient>
<radialGradient id="paint1_radial_4_498" cx="0" cy="0" r="1" gradientUnits="userSpaceOnUse" gradientTransform="translate(51.5046 21.661) rotate(97.6702) scale(20.7981 5.55175)">
<stop offset="0.187845" stop-color="white"/>
<stop offset="0.61326" stop-color="white" stop-opacity="0.8565"/>
<stop offset="1" stop-color="white" stop-opacity="0.6"/>
</radialGradient>
<radialGradient id="paint2_radial_4_498" cx="0" cy="0" r="1" gradientUnits="userSpaceOnUse" gradientTransform="translate(41.5046 30.952) rotate(102.005) scale(13.3462 5.47936)">
<stop offset="0.187845" stop-color="white"/>
<stop offset="0.61326" stop-color="white" stop-opacity="0.8565"/>
<stop offset="1" stop-color="white" stop-opacity="0.6"/>
</radialGradient>
<radialGradient id="paint3_radial_4_498" cx="0" cy="0" r="1" gradientUnits="userSpaceOnUse" gradientTransform="translate(32.5046 26.7288) rotate(99.5558) scale(16.7217 5.52414)">
<stop offset="0.187845" stop-color="white"/>
<stop offset="0.61326" stop-color="white" stop-opacity="0.8565"/>
<stop offset="1" stop-color="white" stop-opacity="0.6"/>
</radialGradient>
<radialGradient id="paint4_radial_4_498" cx="0" cy="0" r="1" gradientUnits="userSpaceOnUse" gradientTransform="translate(22.5046 36.0198) rotate(107.265) scale(9.35332 5.34947)">
<stop offset="0.187845" stop-color="white"/>
<stop offset="0.61326" stop-color="white" stop-opacity="0.8565"/>
<stop offset="1" stop-color="white" stop-opacity="0.6"/>
</radialGradient>
<clipPath id="clip0_4_498">
<rect width="270" height="64" fill="white"/>
</clipPath>
</defs>
</svg>
